:SAMPLES-PER-SECOND 30
:FULLY-SPECIFIED
:DEGREES
362
root  14.0674 39.2859 8.51017 -124.629 -82.2767 123.716
RightUpLeg  -7.36083 -5.933 -0.438822
RightLeg  48.0205 -5.4894 -6.77319
RightFoot  1.31872 -1.99107 17.9035
RightToes  1.16414e-010 0 -3.6325e-017
Spine  13.7625 -0.313417 -0.0210303
Spine1  -0.364714 1.10298 -9.27412
HEad  -12.8742 7.05042 1.97954
LeftShoulder1  0.5855 1.03377 -16.8895
LeftArm  -29.0536 22.1001 -52.6059
LeftForeArm  -76.9697 -23.6228 -7.16003
LeftHand  0.653643 13.3974 10.2226
RightShoulder  1.49552 2.33126 19.233
RightArm  1.22337 -42.3606 33.4595
RightForeArm  26.0134 54.4199 13.674
RightHand  -3.09818 2.79028 -42.5067
LeftUpLeg  -13.8382 2.89674 1.62358
LeftLeg  35.7204 -1.20543 -0.561349
LeftFoot  -3.97443 1.48744 -22.5254
LeftToes  7.09373e-011 9.9627e-011 8.96859e-012
363
root  13.7579 38.6376 9.06379 -116.603 -80.6606 114.059
RightUpLeg  -4.23529 -2.41361 1.24848
RightLeg  49.386 -13.8433 -17.0259
RightFoot  -3.52995 -1.16439 16.3622
RightToes  1.16414e-010 0 -3.6325e-017
Spine  13.3724 0.0292344 0.0999479
Spine1  2.16135 2.45718 -12.9683
HEad  -13.1338 4.96359 4.12618
LeftShoulder1  0.867325 0.163043 -19.5355
LeftArm  -37.9455 22.0841 -55.0815
LeftForeArm  -87.531 -23.5599 -6.71944
LeftHand  2.14726 16.6932 21.7745
RightShoulder  1.53223 2.09619 21.095
RightArm  3.11487 -42.4871 33.7672
RightForeArm  16.5821 43.5605 9.59798
RightHand  -3.05413 2.69333 -42.1533
LeftUpLeg  -12.6528 3.69129 -1.64587
LeftLeg  37.7901 -2.04415 -1.31151
LeftFoot  -6.1161 0.931145 -19.2421
LeftToes  7.09373e-011 9.9627e-011 8.96859e-012
364
root  13.5182 37.753 9.59779 -114.064 -78.4218 111.026
RightUpLeg  -3.81289 2.19858 1.91115
RightLeg  54.521 -19.9268 -27.5901
RightFoot  -9.74474 -0.253633 13.8223
RightToes  1.16414e-010 0 -3.6325e-017
Spine  13.3426 0.21345 -0.0768752
Spine1  2.83383 3.45452 -16.8921
HEad  -12.7437 3.49911 5.58363
LeftShoulder1  0.801799 0.361295 -18.8815
LeftArm  -44.8455 23.1647 -56.5644
LeftForeArm  -96.5885 -24.8625 -6.8679
LeftHand  3.77637 19.0376 31.0518
RightShoulder  1.53318 1.9169 22.0769
RightArm  14.7174 -40.864 35.0589
RightForeArm  8.07865 30.7108 6.22474
RightHand  -1.51742 -0.127292 -30.8211
LeftUpLeg  -11.5161 5.00817 -5.0331
LeftLeg  38.879 -2.00688 -1.33423
LeftFoot  -12.8822 -0.125011 -15.9452
LeftToes  7.09373e-011 9.9627e-011 8.96859e-012
365
root  13.452 36.9158 10.0692 -107.789 -76.5685 105.291
RightUpLeg  -7.05863 3.33675 0.384003
RightLeg  61.2582 -16.2877 -29.0784
RightFoot  -11.0736 -0.0981392 12.0015
RightToes  1.16414e-010 0 -3.6325e-017
Spine  14.1641 0.0496465 -0.833672
Spine1  1.78779 3.37384 -19.1415
HEad  -12.6717 2.08597 5.17291
LeftShoulder1  0.431665 1.65429 -16.5485
LeftArm  -50.4888 23.2656 -55.0567
LeftForeArm  -94.6186 -26.6298 -7.62944
LeftHand  4.248 18.2977 36.3351
RightShoulder  1.6179 2.21472 22.0901
RightArm  36.2024 -41.4637 36.3072
RightForeArm  4.67195 23.4304 4.73971
RightHand  -0.276882 -2.13716 -11.6913
LeftUpLeg  -11.716 5.10663 -8.48973
LeftLeg  39.5072 -1.20545 -0.654536
LeftFoot  -20.4084 -0.90734 -12.8119
LeftToes  7.09373e-011 9.9627e-011 8.96859e-012
366
root  13.5447 36.5641 10.3861 -97.3902 -75.6169 95.2761
RightUpLeg  -11.9118 0.258336 -2.325
RightLeg  68.5319 -7.93061 -21.7721
RightFoot  -8.77081 -0.292611 10.4588
RightToes  1.16414e-010 0 -3.6325e-017
Spine  15.5521 -0.520726 -1.31501
Spine1  1.66622 2.68176 -19.6943
HEad  -14.5454 1.04223 3.8166
LeftShoulder1  0.138654 2.8405 -14.191
LeftArm  -55.1286 21.0369 -50.2245
LeftForeArm  -82.1665 -30.6636 -8.91946
LeftHand  3.54434 15.7067 37.8534
RightShoulder  1.76046 2.75025 21.9234
RightArm  50.3637 -46.2269 37.1375
RightForeArm  12.2693 25.0978 4.72774
RightHand  0.212261 -0.387895 4.58587
LeftUpLeg  -12.0449 3.47099 -10.9636
LeftLeg  38.9873 -0.761213 -0.242008
LeftFoot  -23.0855 -1.04864 -11.4612
LeftToes  7.09373e-011 9.9627e-011 8.96859e-012
367
root  13.7225 36.9746 10.5079 -89.1935 -75.8472 86.8599
RightUpLeg  -16.2276 -3.66903 -3.77246
RightLeg  76.908 -3.08721 -17.1384
RightFoot  -7.25296 -0.361782 8.64922
RightToes  1.16414e-010 0 -3.6325e-017
Spine  17.1095 -1.45547 0.00491602
Spine1  3.10658 2.15808 -20.1844
HEad  -17.8165 1.41895 2.84943
LeftShoulder1  0.0141869 3.42216 -10.9042
LeftArm  -58.3193 18.1171 -44.5585
LeftForeArm  -66.9272 -37.8683 -11.1258
LeftHand  3.12456 14.2043 39.0209
RightShoulder  1.86015 3.05246 22.1588
RightArm  50.2187 -52.6912 37.034
RightForeArm  27.2715 32.1078 5.52377
RightHand  0.832658 0.425587 16.8949
LeftUpLeg  -10.9182 1.63823 -11.2113
LeftLeg  36.0052 -0.679877 -0.138398
LeftFoot  -20.2714 -0.828765 -12.1826
LeftToes  7.09373e-011 9.9627e-011 8.96859e-012
368
root  13.9586 38.1425 10.4415 -87.3748 -77.4433 85.0726
RightUpLeg  -20.1429 -5.81341 -2.90105
RightLeg  83.7922 -1.21621 -19.8804
RightFoot  -8.01158 -0.271432 7.43508
RightToes  1.16414e-010 0 -3.6325e-017
Spine  18.9252 -2.53955 2.3879
Spine1  3.82275 1.60113 -20.3949
HEad  -20.1212 3.53993 1.8026
LeftShoulder1  -0.12854 4.46212 -6.09677
LeftArm  -59.8619 17.1373 -39.418
LeftForeArm  -50.1948 -46.6399 -14.3355
LeftHand  3.1958 13.7702 41.7075
RightShoulder  1.95721 3.34063 22.3917
RightArm  50.6025 -58.2054 32.6822
RightForeArm  38.8569 43.0872 7.94096
RightHand  0.711295 -1.84833 23.1055
LeftUpLeg  -8.61262 1.23944 -9.37238
LeftLeg  29.6098 -0.342419 0.176079
LeftFoot  -13.4001 -0.170295 -12.5228
LeftToes  7.09373e-011 9.9627e-011 8.96859e-012
